<?xml version="1.0" encoding="iso-8859-1"?>
<!-- Generator: Adobe Illustrator 19.0.0, SVG Export Plug-In . SVG Version: 6.00 Build 0)  -->
<svg version="1.1" id="Layer_1" xmlns="http://www.w3.org/2000/svg" xmlns:xlink="http://www.w3.org/1999/xlink" x="0px" y="0px"
	 viewBox="0 0 512 512" style="enable-background:new 0 0 512 512;" xml:space="preserve">
	<path style="fill:#1aad19;" d="M488.935,482.26l-54.854-128c-3.354-7.844-11.073-12.927-19.604-12.927H320.91l66.538-121.104
		c11.698-21.667,17.885-46.177,17.885-70.896C405.333,66.99,338.344,0,256,0S106.667,66.99,106.667,149.333
		c0,24.719,6.188,49.229,17.927,70.958l66.5,121.042H97.523c-8.531,0-16.25,5.083-19.604,12.927l-54.854,128
		c-2.833,6.594-2.156,14.167,1.792,20.146c3.948,5.99,10.646,9.594,17.813,9.594h426.663c7.167,0,13.865-3.604,17.813-9.594
		C491.092,496.427,491.769,488.854,488.935,482.26z M170.667,149.333C170.667,102.281,208.948,64,256,64
		s85.333,38.281,85.333,85.333c0,47.052-38.281,85.333-85.333,85.333S170.667,196.385,170.667,149.333z M75.023,469.333
		L111.585,384h102.948l32.122,58.469c1.865,3.417,5.448,5.531,9.344,5.531c3.896,0,7.479-2.115,9.344-5.531L297.467,384h102.947
		l36.563,85.333H75.023z"/>
</svg>
